<svg width="106" height="37" viewBox="0 0 106 37" fill="none" xmlns="http://www.w3.org/2000/svg">
<path fill-rule="evenodd" clip-rule="evenodd" d="M12.1843 10.1804H16.0288V12.5238C16.0288 13.1129 15.7343 13.4074 15.1452 13.4074H12.0527C12.3491 14.4417 12.352 16.1016 11.7622 17.3259H17.6039C18.8332 17.3259 19.6784 17.0954 20.1394 16.6344C20.626 16.1734 20.8693 15.341 20.8693 14.1373V3.227C20.8693 2.5355 20.6132 2.02328 20.1009 1.69033C19.6143 1.35739 19.0637 1.19091 18.449 1.19091C17.8344 1.19091 17.2709 1.35739 16.7587 1.69033C16.2721 2.02328 16.0288 2.5355 16.0288 3.227V6.26191H13.0316C13.1264 7.53945 12.7791 9.27409 12.1843 10.1804ZM34.1614 7.1455C34.7761 7.1455 35.2243 7.35038 35.506 7.76016C35.7877 8.16994 35.9286 8.66935 35.9286 9.25841C35.9286 9.84746 35.7877 10.3597 35.506 10.7951C35.2243 11.2049 34.7761 11.4097 34.1614 11.4097H30.5503V16.4807C30.5503 17.1978 30.2942 17.7229 29.7819 18.0558C29.2953 18.3888 28.7319 18.5552 28.0916 18.5552C27.4513 18.5552 26.8751 18.3888 26.3629 18.0558C25.8762 17.7229 25.6329 17.1978 25.6329 16.4807V2.0745C25.6329 1.35739 25.8762 0.832359 26.3629 0.499415C26.8751 0.16647 27.4513 0 28.0916 0C28.7319 0 29.2953 0.16647 29.7819 0.499415C30.2942 0.832359 30.5503 1.35739 30.5503 2.0745V7.1455H34.1614ZM24.903 26.0465C25.4921 26.0465 25.7866 25.752 25.7866 25.1629V24.7403C25.7866 24.1513 25.4921 23.8567 24.903 23.8567H9.42112C8.85767 23.8567 8.44789 23.6646 8.19178 23.2805C7.93567 22.8707 7.80762 22.4097 7.80762 21.8975C7.80762 21.3853 7.93567 20.9371 8.19178 20.5529C8.44789 20.1687 8.85767 19.9767 9.42112 19.9767H27.2849C28.5142 19.9767 29.3594 20.2072 29.8204 20.6682C30.307 21.1292 30.5503 21.9615 30.5503 23.1652V26.5843C30.5503 27.788 30.307 28.6204 29.8204 29.0814C29.3594 29.5424 28.5142 29.7729 27.2849 29.7729H13.5317C12.9426 29.7729 12.6481 30.0674 12.6481 30.6565V31.0791C12.6481 31.6681 12.9426 31.9626 13.5317 31.9626H29.7051C30.2685 31.9626 30.6783 32.1547 30.9344 32.5389C31.1905 32.9487 31.3186 33.4097 31.3186 33.9219C31.3186 34.4341 31.1905 34.8823 30.9344 35.2665C30.6783 35.6506 30.2685 35.8427 29.7051 35.8427H11.1499C9.92053 35.8427 9.06256 35.6122 8.57595 35.1512C8.11495 34.6902 7.88445 33.8579 7.88445 32.6541V29.2351C7.88445 28.0313 8.11495 27.199 8.57595 26.738C9.06256 26.277 9.92053 26.0465 11.1499 26.0465H24.903ZM50.8403 6.83816V9.68099C50.8403 10.5005 50.8787 11.2433 50.9555 11.9092C51.0579 12.575 51.2116 13.1897 51.4165 13.7532C51.647 14.3166 51.9415 14.8672 52.3001 15.4051C52.6586 15.9173 53.1068 16.4423 53.6447 16.9802C54.3874 17.7229 55.1045 18.4272 55.796 19.0931C56.4875 19.759 57.1278 20.348 57.7168 20.8602C58.2034 21.2956 58.3955 21.8078 58.2931 22.3969C58.2162 22.986 57.9857 23.4854 57.6016 23.8951C57.2174 24.2793 56.7436 24.5354 56.1802 24.6635C55.6167 24.7659 55.1045 24.6123 54.6435 24.2025C54.1313 23.7671 53.5678 23.2549 52.9532 22.6658L50.9939 20.7066C49.9951 19.7077 49.3292 18.9522 48.9963 18.44C48.6633 17.9022 48.4584 17.454 48.3816 17.0954H48.3432C48.292 17.3259 48.2151 17.5564 48.1127 17.7869C48.0358 17.9918 47.895 18.2479 47.6901 18.5552C47.5108 18.837 47.2547 19.1699 46.9218 19.5541C46.5888 19.9126 46.179 20.3352 45.6924 20.8218C45.0009 21.5133 44.3094 22.192 43.6179 22.8579C42.9264 23.5238 42.2093 24.1769 41.4666 24.8171C41.2105 25.022 40.9416 25.1501 40.6598 25.2013C40.3781 25.2525 40.0964 25.2525 39.8147 25.2013C39.5586 25.1245 39.3025 25.022 39.0463 24.894C38.8158 24.7403 38.611 24.561 38.4317 24.3561C38.0475 23.9208 37.8426 23.4085 37.817 22.8195C37.7914 22.2304 38.0219 21.7182 38.5085 21.2828C40.122 19.8742 41.6331 18.44 43.0417 16.9802C43.5795 16.4423 44.0277 15.9173 44.3863 15.4051C44.7448 14.8672 45.0265 14.3166 45.2314 13.7532C45.4619 13.1897 45.6156 12.575 45.6924 11.9092C45.7949 11.2433 45.8461 10.5005 45.8461 9.68099V6.83816H40.1604C39.5714 6.83816 39.136 6.63327 38.8543 6.22349C38.5725 5.81372 38.4317 5.32711 38.4317 4.76366C38.4317 4.17461 38.5725 3.67519 38.8543 3.26541C39.136 2.85563 39.5714 2.65075 40.1604 2.65075H56.2186C56.8076 2.65075 57.243 2.85563 57.5247 3.26541C57.8065 3.67519 57.9473 4.17461 57.9473 4.76366C57.9473 5.32711 57.8065 5.81372 57.5247 6.22349C57.243 6.63327 56.8076 6.83816 56.2186 6.83816H50.8403ZM69.1266 11.3329C69.7412 11.3329 70.1894 11.5378 70.4712 11.9476C70.7529 12.3574 70.8937 12.8568 70.8937 13.4458C70.8937 14.0349 70.7529 14.5471 70.4712 14.9825C70.1894 15.3923 69.7412 15.5972 69.1266 15.5972H65.5154V31.5016C65.5154 32.2188 65.2593 32.7438 64.7471 33.0767C64.2605 33.4097 63.697 33.5761 63.0567 33.5761C62.4165 33.5761 61.8402 33.4097 61.328 33.0767C60.8414 32.7438 60.5981 32.2188 60.5981 31.5016V2.0745C60.5981 1.35739 60.8414 0.832359 61.328 0.499415C61.8402 0.16647 62.4165 0 63.0567 0C63.697 0 64.2605 0.16647 64.7471 0.499415C65.2593 0.832359 65.5154 1.35739 65.5154 2.0745V11.3329H69.1266ZM76.9696 5.03258C77.2513 5.44236 77.6867 5.64724 78.2757 5.64724H94.9101C95.4992 5.64724 95.7937 5.94177 95.7937 6.53083V7.52966C95.7937 9.66901 95.5541 11.8332 95.075 14.0221H74.4341C73.845 14.0221 73.4096 14.227 73.1279 14.6367C72.8462 15.0465 72.7053 15.5331 72.7053 16.0966C72.7053 16.6344 72.8462 17.1082 73.1279 17.518C73.4096 17.9278 73.845 18.1327 74.4341 18.1327H86.5353V23.2805H78.1221C77.533 23.2805 77.0976 23.4854 76.8159 23.8951C76.5342 24.3049 76.3933 24.7787 76.3933 25.3166C76.3933 25.88 76.5342 26.3666 76.8159 26.7764C77.0976 27.1862 77.533 27.3911 78.1221 27.3911H95.2559C95.8449 27.3911 96.1395 27.6856 96.1395 28.2746V34.114C96.1395 34.8311 96.3828 35.3561 96.8694 35.6891C97.3816 36.022 97.9579 36.1885 98.5981 36.1885C99.2384 36.1885 99.8019 36.022 100.288 35.6891C100.801 35.3561 101.057 34.8311 101.057 34.114V26.4691C101.057 25.2653 100.813 24.433 100.327 23.972C99.8659 23.511 99.0207 23.2805 97.7914 23.2805H91.3758V18.1327H103.477C104.066 18.1327 104.501 17.9278 104.783 17.518C105.065 17.1082 105.206 16.6344 105.206 16.0966C105.206 15.5331 105.065 15.0465 104.783 14.6367C104.501 14.227 104.066 14.0221 103.477 14.0221H99.8113C99.9295 13.5433 100.037 13.0439 100.135 12.5238C100.288 11.6787 100.417 10.8079 100.519 9.91149C100.621 8.98949 100.673 8.0931 100.673 7.22233V4.61C100.673 3.40627 100.429 2.57391 99.9427 2.11291C99.4817 1.65191 98.6366 1.42141 97.4072 1.42141H78.2757C77.6867 1.42141 77.2513 1.6263 76.9696 2.03608C76.6879 2.44586 76.547 2.94527 76.547 3.53433C76.547 4.12338 76.6879 4.6228 76.9696 5.03258Z" fill="#4FB8E7"/>
<path d="M10.5574 3.81711C10.7367 2.97155 10.3853 2.14964 9.77265 1.98134C9.15997 1.81303 8.51798 2.36206 8.33873 3.20762C8.15947 4.05318 8.51083 4.87509 9.12351 5.04339C9.73619 5.2117 10.3782 4.66267 10.5574 3.81711Z" fill="#4FB8E7"/>
<path d="M7.68309 3.24134C7.68657 2.59229 7.28648 2.05566 6.78946 2.04274C6.29245 2.02982 5.88672 2.5455 5.88325 3.19455C5.87977 3.84359 6.27986 4.38023 6.77687 4.39315C7.27389 4.40607 7.67961 3.89039 7.68309 3.24134Z" fill="#4FB8E7"/>
<path d="M4.80709 4.54271C5.22651 4.47272 5.49748 3.96695 5.41232 3.41305C5.32716 2.85915 4.91811 2.46686 4.49869 2.53685C4.07927 2.60684 3.8083 3.1126 3.89346 3.66651C3.97862 4.22041 4.38767 4.6127 4.80709 4.54271Z" fill="#4FB8E7"/>
<path d="M3.18701 5.4428C3.54561 5.30566 3.70414 4.79444 3.54109 4.30096C3.37805 3.80748 2.95517 3.51861 2.59657 3.65574C2.23797 3.79288 2.07944 4.3041 2.24249 4.79758C2.40554 5.29106 2.82841 5.57993 3.18701 5.4428Z" fill="#4FB8E7"/>
<path d="M2.08878 6.92281C2.38091 6.79821 2.50006 6.37604 2.35491 5.97987C2.20976 5.58369 1.85527 5.36354 1.56314 5.48814C1.271 5.61274 1.15185 6.03491 1.297 6.43108C1.44215 6.82725 1.79664 7.04741 2.08878 6.92281Z" fill="#4FB8E7"/>
<path d="M2.78538 7.80966C3.13867 6.23328 4.15596 5.48174 5.77015 5.19677C7.39534 4.90844 9.12171 5.32339 9.47347 6.12107C9.85917 6.99505 9.8792 7.73076 9.49299 8.81407C9.49299 8.81407 9.49363 8.82102 9.49392 8.82411C9.18942 9.68255 8.04834 10.113 8.2021 11.6743C8.38607 13.5468 8.74112 13.4711 8.93527 14.1704C9.0484 14.5662 9.11298 14.9759 9.12727 15.3887C9.1624 16.5319 8.59192 17.3511 7.59078 17.605C6.26217 17.9422 5.39375 17.5522 4.75536 16.3472C4.10643 15.1277 4.293 15.4243 3.73312 13.6084C3.33576 12.3259 3.08393 11.4924 2.78284 9.89019C2.67453 9.31609 2.65876 8.37436 2.78538 7.80966Z" fill="#4FB8E7"/>
</svg>
