<svg width="24" height="25" viewBox="0 0 24 25" fill="none" xmlns="http://www.w3.org/2000/svg">
<path d="M21.8055 10.5693H21V10.5278H12V14.5278H17.6515C16.827 16.8563 14.6115 18.5278 12 18.5278C8.6865 18.5278 6 15.8413 6 12.5278C6 9.21433 8.6865 6.52783 12 6.52783C13.5295 6.52783 14.921 7.10483 15.9805 8.04733L18.809 5.21883C17.023 3.55433 14.634 2.52783 12 2.52783C6.4775 2.52783 2 7.00533 2 12.5278C2 18.0503 6.4775 22.5278 12 22.5278C17.5225 22.5278 22 18.0503 22 12.5278C22 11.8573 21.931 11.2028 21.8055 10.5693Z" fill="#FFC107"/>
<path d="M3.15283 7.87333L6.43833 10.2828C7.32733 8.08183 9.48033 6.52783 11.9998 6.52783C13.5293 6.52783 14.9208 7.10483 15.9803 8.04733L18.8088 5.21883C17.0228 3.55433 14.6338 2.52783 11.9998 2.52783C8.15883 2.52783 4.82783 4.69633 3.15283 7.87333Z" fill="#FF3D00"/>
<path d="M12.0002 22.5278C14.5832 22.5278 16.9302 21.5393 18.7047 19.9318L15.6097 17.3128C14.5719 18.102 13.3039 18.5289 12.0002 18.5278C9.39916 18.5278 7.19066 16.8693 6.35866 14.5548L3.09766 17.0673C4.75266 20.3058 8.11366 22.5278 12.0002 22.5278Z" fill="#4CAF50"/>
<path d="M21.8055 10.5693H21V10.5278H12V14.5278H17.6515C17.2571 15.636 16.5467 16.6044 15.608 17.3133L15.6095 17.3123L18.7045 19.9313C18.4855 20.1303 22 17.5278 22 12.5278C22 11.8573 21.931 11.2028 21.8055 10.5693Z" fill="#1976D2"/>
</svg>
