<svg width="16" height="16" viewBox="0 0 16 16" fill="none" xmlns="http://www.w3.org/2000/svg">
<path d="M7.25 11.75C7.25 12.1642 7.58579 12.5 8 12.5C8.41421 12.5 8.75 12.1642 8.75 11.75C8.75 11.3358 8.41421 11 8 11C7.58579 11 7.25 11.3358 7.25 11.75ZM8 0.5C3.86 0.5 0.5 3.86 0.5 8C0.5 12.14 3.86 15.5 8 15.5C12.14 15.5 15.5 12.14 15.5 8C15.5 3.86 12.14 0.5 8 0.5ZM8 14C4.6925 14 2 11.3075 2 8C2 4.6925 4.6925 2 8 2C11.3075 2 14 4.6925 14 8C14 11.3075 11.3075 14 8 14ZM8 3.5C6.68643 3.5 5.5707 4.34317 5.16423 5.51807C4.98366 6.04001 5.44772 6.5 6 6.5C6.27614 6.5 6.49196 6.26994 6.58295 6.00922C6.7874 5.42332 7.34666 5 8 5C8.825 5 9.5 5.675 9.5 6.5C9.5 7.82711 7.73878 7.8333 7.33278 9.50517C7.23504 9.90768 7.58579 10.25 8 10.25C8.41421 10.25 8.73258 9.89714 8.9129 9.52423C9.42992 8.45501 11 8.06628 11 6.5C11 4.8425 9.6575 3.5 8 3.5Z" fill="#C4C4C4"/>
</svg>
