<svg width="194" height="194" viewBox="0 0 194 194" fill="none" xmlns="http://www.w3.org/2000/svg">
<g clip-path="url(#clip0_269_2907)">
<g filter="url(#filter0_i_269_2907)">
<path fill-rule="evenodd" clip-rule="evenodd" d="M109.783 36.5698C114.24 37.065 117.376 41.7588 116.788 47.0538C116.2 52.3488 112.11 56.2398 107.653 55.7446C103.196 55.2494 100.06 50.5555 100.648 45.2605C101.237 39.9656 105.327 36.0746 109.783 36.5698ZM136.632 37.7082C142.021 39.5523 144.505 46.5557 142.18 53.3506C139.855 60.1455 133.601 64.1588 128.212 62.3147C122.822 60.4705 120.338 53.4672 122.663 46.6723C124.988 39.8774 131.242 35.864 136.632 37.7082ZM89.6861 54.9317C93.5292 54.6764 96.3968 50.7364 96.0909 46.1313C95.7851 41.5263 92.4216 38.0001 88.5784 38.2554C84.7352 38.5106 81.8677 42.4507 82.1735 47.0557C82.4794 51.6608 85.8429 55.1869 89.6861 54.9317ZM78.4486 51.9906C79.5081 56.1595 77.6498 60.2297 74.2978 61.0816C70.9458 61.9335 67.3695 59.2446 66.31 55.0756C65.2504 50.9067 67.1088 46.8365 70.4608 45.9846C73.8128 45.1327 77.3891 47.8216 78.4486 51.9906ZM63.1845 72.331C65.9272 71.529 67.3551 68.1584 66.3738 64.8026C65.3924 61.4467 62.3735 59.3765 59.6308 60.1785C56.8881 60.9805 55.4603 64.3511 56.4416 67.7069C57.4229 71.0627 60.4418 73.133 63.1845 72.331ZM68.6995 80.1772C73.1823 67.5294 83.0171 62.1364 97.8207 61.0139C112.734 59.8847 127.982 64.5934 130.521 71.3963C133.259 78.8563 132.855 84.8995 128.468 93.4887V93.5709C127.264 95.9361 125.19 97.8009 122.999 99.77C118.889 103.464 114.371 107.526 114.424 115.951C114.489 126.457 116.014 129.673 117.351 132.492C117.983 133.827 118.574 135.073 118.948 136.962C119.627 140.293 119.857 143.699 119.633 147.091C118.948 156.488 113.138 162.771 103.891 164.091C91.6132 165.844 84.1395 161.99 79.3487 151.629C75.7394 143.808 75.6221 143.252 74.3269 137.124C73.8857 135.036 73.3079 132.302 72.4089 128.414C69.8903 117.628 68.3025 110.565 66.9337 97.2256C66.441 92.4416 67.0843 84.7079 68.6995 80.1772Z" fill="#4FB8E7"/>
</g>
</g>
<defs>
<filter id="filter0_i_269_2907" x="56.1318" y="36.5273" width="86.9204" height="127.971" filterUnits="userSpaceOnUse" color-interpolation-filters="sRGB">
<feFlood flood-opacity="0" result="BackgroundImageFix"/>
<feBlend mode="normal" in="SourceGraphic" in2="BackgroundImageFix" result="shape"/>
<feColorMatrix in="SourceAlpha" type="matrix" values="0 0 0 0 0 0 0 0 0 0 0 0 0 0 0 0 0 0 127 0" result="hardAlpha"/>
<feOffset dx="3.23077" dy="3.23077"/>
<feComposite in2="hardAlpha" operator="arithmetic" k2="-1" k3="1"/>
<feColorMatrix type="matrix" values="0 0 0 0 0 0 0 0 0 0 0 0 0 0 0 0 0 0 0.25 0"/>
<feBlend mode="normal" in2="shape" result="effect1_innerShadow_269_2907"/>
</filter>
<clipPath id="clip0_269_2907">
<rect width="194" height="194" rx="24.2308" fill="white"/>
</clipPath>
</defs>
</svg>
