<svg width="22" height="20" viewBox="0 0 22 20" fill="none" xmlns="http://www.w3.org/2000/svg">
<path d="M11 0C16.799 0 21.5 3.664 21.5 8.185C21.5 12.705 16.799 16.369 11 16.369C10.4226 16.3693 9.84572 16.3326 9.273 16.259L4.865 19.142C4.364 19.407 4.187 19.378 4.393 18.729L5.285 15.051C2.405 13.591 0.5 11.061 0.5 8.185C0.5 3.665 5.201 0 11 0ZM16.907 8.06L18.377 6.636C18.4618 6.54791 18.5091 6.43033 18.509 6.30804C18.5088 6.18575 18.4612 6.0683 18.3762 5.98041C18.2912 5.89252 18.1753 5.84107 18.0531 5.83689C17.9309 5.83271 17.8118 5.87613 17.721 5.958L15.793 7.824V6.282C15.793 6.15682 15.7433 6.03676 15.6548 5.94825C15.5662 5.85973 15.4462 5.81 15.321 5.81C15.1958 5.81 15.0758 5.85973 14.9872 5.94825C14.8987 6.03676 14.849 6.15682 14.849 6.282V8.839C14.8313 8.91194 14.8313 8.98806 14.849 9.061V10.5C14.849 10.6252 14.8987 10.7452 14.9872 10.8338C15.0758 10.9223 15.1958 10.972 15.321 10.972C15.4462 10.972 15.5662 10.9223 15.6548 10.8338C15.7433 10.7452 15.793 10.6252 15.793 10.5V9.137L16.22 8.724L17.648 10.757C17.6837 10.8078 17.729 10.851 17.7813 10.8842C17.8337 10.9175 17.8921 10.9401 17.9532 10.9508C18.0143 10.9615 18.0769 10.96 18.1374 10.9465C18.198 10.933 18.2552 10.9077 18.306 10.872C18.3568 10.8363 18.4 10.791 18.4332 10.7387C18.4665 10.6863 18.4891 10.6279 18.4998 10.5668C18.5105 10.5057 18.509 10.4431 18.4955 10.3826C18.482 10.322 18.4567 10.2648 18.421 10.214L16.907 8.059V8.06ZM13.949 9.984H12.489V6.297C12.4834 6.17571 12.4313 6.06123 12.3435 5.97737C12.2557 5.89351 12.1389 5.84672 12.0175 5.84672C11.8961 5.84672 11.7793 5.89351 11.6915 5.97737C11.6037 6.06123 11.5516 6.17571 11.546 6.297V10.456C11.546 10.716 11.756 10.928 12.017 10.928H13.949C14.0742 10.928 14.1942 10.8783 14.2828 10.7898C14.3713 10.7012 14.421 10.5812 14.421 10.456C14.421 10.3308 14.3713 10.2108 14.2828 10.1222C14.1942 10.0337 14.0742 9.984 13.949 9.984ZM8.092 8.892L8.788 7.185L9.426 8.892H8.092ZM10.615 9.38L10.617 9.364C10.6168 9.24509 10.5714 9.13071 10.49 9.044L9.444 6.244C9.40015 6.11057 9.31663 5.99369 9.20459 5.90899C9.09255 5.8243 8.95733 5.7758 8.817 5.77C8.67564 5.76938 8.53744 5.81182 8.42079 5.89167C8.30414 5.97152 8.21457 6.08499 8.164 6.217L6.503 10.292C6.47956 10.3494 6.46765 10.4108 6.46796 10.4728C6.46826 10.5348 6.48077 10.5961 6.50478 10.6533C6.52878 10.7104 6.56381 10.7623 6.60785 10.8059C6.6519 10.8495 6.70411 10.8841 6.7615 10.9075C6.81889 10.9309 6.88033 10.9428 6.94232 10.9425C7.00431 10.9422 7.06563 10.9297 7.12279 10.9057C7.17994 10.8817 7.23181 10.8467 7.27543 10.8026C7.31904 10.7586 7.35356 10.7064 7.377 10.649L7.707 9.836H9.777L10.076 10.636C10.0963 10.6958 10.1285 10.7509 10.1705 10.7981C10.2125 10.8452 10.2635 10.8835 10.3206 10.9105C10.3777 10.9376 10.4396 10.9529 10.5027 10.9557C10.5658 10.9584 10.6288 10.9484 10.688 10.9263C10.7471 10.9042 10.8013 10.8704 10.8472 10.8271C10.8931 10.7837 10.9298 10.7315 10.9551 10.6737C10.9805 10.6158 10.994 10.5535 10.9948 10.4903C10.9957 10.4272 10.9838 10.3645 10.96 10.306L10.615 9.38ZM7.293 6.302C7.293 6.17699 7.24341 6.05709 7.15511 5.9686C7.06681 5.88011 6.94701 5.83026 6.822 5.83H3.577C3.45182 5.83 3.33176 5.87973 3.24325 5.96825C3.15473 6.05676 3.105 6.17682 3.105 6.302C3.105 6.42718 3.15473 6.54724 3.24325 6.63575C3.33176 6.72427 3.45182 6.774 3.577 6.774H4.737V10.51C4.737 10.6352 4.78673 10.7552 4.87525 10.8438C4.96376 10.9323 5.08382 10.982 5.209 10.982C5.33418 10.982 5.45424 10.9323 5.54275 10.8438C5.63127 10.7552 5.681 10.6352 5.681 10.51V6.774H6.821C6.94618 6.774 7.06624 6.72427 7.15475 6.63575C7.24327 6.54724 7.293 6.42718 7.293 6.302Z" fill="#241F20"/>
</svg>
