<svg width="28" height="28" viewBox="0 0 28 28" fill="none" xmlns="http://www.w3.org/2000/svg">
<g clip-path="url(#clip0_2224_5943)">
<path d="M29.3079 -1.32129H-1.33447V29.3211H29.3079V-1.32129Z" fill="white"/>
<g filter="url(#filter0_i_2224_5943)">
<path fill-rule="evenodd" clip-rule="evenodd" d="M15.8453 5.27762C16.4886 5.34909 16.9412 6.02655 16.8563 6.79078C16.7714 7.555 16.1811 8.11659 15.5378 8.04512C14.8946 7.97365 14.442 7.29618 14.5269 6.53196C14.6118 5.76773 15.2021 5.20614 15.8453 5.27762ZM19.7203 5.44172C20.4982 5.70789 20.8567 6.71868 20.5211 7.69939C20.1856 8.6801 19.2829 9.25935 18.5051 8.99318C17.7272 8.72701 17.3687 7.71622 17.7043 6.73551C18.0399 5.7548 18.9425 5.17556 19.7203 5.44172ZM12.9447 7.92805C13.4994 7.89121 13.9133 7.32254 13.8691 6.6579C13.825 5.99325 13.3396 5.48432 12.7849 5.52116C12.2302 5.558 11.8163 6.12667 11.8604 6.79131C11.9046 7.45596 12.39 7.96489 12.9447 7.92805ZM11.3227 7.50356C11.4756 8.10526 11.2074 8.69271 10.7236 8.81567C10.2398 8.93862 9.72366 8.55053 9.57074 7.94883C9.41781 7.34713 9.68603 6.75968 10.1698 6.63672C10.6536 6.51376 11.1698 6.90186 11.3227 7.50356ZM9.11971 10.4388C9.51557 10.3231 9.72165 9.83659 9.58002 9.35225C9.43839 8.8679 9.00267 8.5691 8.60682 8.68486C8.21096 8.80061 8.00488 9.28709 8.14651 9.77144C8.28814 10.2558 8.72386 10.5546 9.11971 10.4388ZM9.91568 11.5714C10.5627 9.746 11.9821 8.96761 14.1187 8.80562C16.2711 8.64263 18.472 9.32223 18.8384 10.3041C19.2335 11.3808 19.1753 12.253 18.5421 13.4927V13.5046C18.3683 13.8459 18.0689 14.1151 17.7527 14.3993C17.1596 14.9325 16.5074 15.5187 16.5151 16.7346C16.5245 18.251 16.7446 18.7151 16.9375 19.122C17.0288 19.3147 17.1141 19.4945 17.1681 19.7672C17.266 20.2479 17.2992 20.7396 17.2668 21.2291C17.1681 22.5853 16.3294 23.4921 14.9949 23.6828C13.2228 23.9357 12.1441 23.3795 11.4527 21.884C10.9318 20.7552 10.9148 20.6751 10.7279 19.7905C10.6642 19.4892 10.5808 19.0946 10.4511 18.5334C10.0876 16.9766 9.85839 15.9572 9.66083 14.032C9.58971 13.3416 9.68256 12.2254 9.91568 11.5714Z" fill="#4FB8E7"/>
</g>
</g>
<defs>
<filter id="filter0_i_2224_5943" x="8.10181" y="5.27148" width="12.5452" height="18.4702" filterUnits="userSpaceOnUse" color-interpolation-filters="sRGB">
<feFlood flood-opacity="0" result="BackgroundImageFix"/>
<feBlend mode="normal" in="SourceGraphic" in2="BackgroundImageFix" result="shape"/>
<feColorMatrix in="SourceAlpha" type="matrix" values="0 0 0 0 0 0 0 0 0 0 0 0 0 0 0 0 0 0 127 0" result="hardAlpha"/>
<feOffset dx="0.628167" dy="0.628167"/>
<feComposite in2="hardAlpha" operator="arithmetic" k2="-1" k3="1"/>
<feColorMatrix type="matrix" values="0 0 0 0 0 0 0 0 0 0 0 0 0 0 0 0 0 0 0.25 0"/>
<feBlend mode="normal" in2="shape" result="effect1_innerShadow_2224_5943"/>
</filter>
<clipPath id="clip0_2224_5943">
<rect width="28" height="28" rx="4.71125" fill="white"/>
</clipPath>
</defs>
</svg>
