<svg width="207" height="207" viewBox="0 0 207 207" fill="none" xmlns="http://www.w3.org/2000/svg">
<path d="M184.051 141.922L185.223 140.751V139.094V40.7772C185.223 30.2838 176.716 21.7772 166.223 21.7772H23C12.5066 21.7772 4 30.2838 4 40.7772V184C4 194.493 12.5066 203 23 203H121.317H122.973L124.145 201.828L184.051 141.922Z" fill="white" stroke="#B9E2F4" stroke-width="8"/>
<line x1="30.4028" y1="58.022" x2="157.789" y2="58.022" stroke="#E1E2E1" stroke-width="1.5" stroke-linecap="round"/>
<line x1="30.4028" y1="89.9858" x2="157.789" y2="89.9858" stroke="#E1E2E1" stroke-width="1.5" stroke-linecap="round"/>
<line x1="30.4028" y1="121.949" x2="157.789" y2="121.949" stroke="#E1E2E1" stroke-width="1.5" stroke-linecap="round"/>
<line x1="73.7085" y1="153.913" x2="125.825" y2="153.913" stroke="#E1E2E1" stroke-width="1.5" stroke-linecap="round"/>
<path d="M121.42 199.103L181.326 139.197H131.42C125.897 139.197 121.42 143.674 121.42 149.197V199.103Z" fill="#E1E2E1"/>
<path fill-rule="evenodd" clip-rule="evenodd" d="M45.8006 149.717C46.9258 149.746 47.8101 150.853 47.7756 152.19C47.7411 153.527 46.801 154.587 45.6758 154.558C44.5506 154.529 43.6663 153.422 43.7008 152.085C43.7353 150.748 44.6754 149.688 45.8006 149.717ZM52.5395 149.43C53.9267 149.777 54.697 151.475 54.2601 153.224C53.8231 154.973 52.3444 156.11 50.9572 155.764C49.57 155.417 48.7996 153.718 49.2366 151.969C49.6735 150.22 51.1523 149.083 52.5395 149.43ZM41.1647 154.737C42.1205 154.591 42.7538 153.545 42.5793 152.4C42.4048 151.254 41.4886 150.444 40.5328 150.59C39.577 150.735 38.9436 151.782 39.1181 152.927C39.2926 154.072 40.2089 154.883 41.1647 154.737ZM38.2916 154.24C38.6454 155.261 38.2672 156.318 37.4469 156.602C36.6267 156.887 35.675 156.29 35.3213 155.27C34.9676 154.25 35.3457 153.193 36.166 152.908C36.9862 152.624 37.9379 153.22 38.2916 154.24ZM34.9062 159.653C35.5752 159.394 35.8606 158.52 35.5437 157.702C35.2269 156.883 34.4277 156.43 33.7588 156.689C33.0899 156.948 32.8045 157.821 33.1214 158.64C33.4382 159.458 34.2373 159.912 34.9062 159.653ZM36.4529 161.498C37.3049 158.239 39.65 156.681 43.3286 156.085C47.0345 155.485 50.9486 156.338 51.7284 157.986C52.5718 159.794 52.5995 161.314 51.685 163.555L51.6867 163.576C51.4359 164.193 50.9568 164.704 50.4508 165.243C49.5015 166.254 48.4578 167.366 48.6505 169.472C48.8903 172.099 49.34 172.87 49.7344 173.547C49.9211 173.867 50.0954 174.166 50.2291 174.631C50.4697 175.45 50.5997 176.297 50.6158 177.15C50.6446 179.515 49.325 181.21 47.0405 181.737C44.0069 182.436 42.0556 181.632 40.6369 179.142C39.5677 177.263 39.5266 177.126 39.0722 175.621C38.9174 175.108 38.7147 174.437 38.4071 173.483C37.5477 170.839 37.0002 169.106 36.374 165.799C36.149 164.613 36.1453 162.665 36.4529 161.498Z" fill="#4FB8E7"/>
<path fill-rule="evenodd" clip-rule="evenodd" d="M51.1269 110.729C50.0784 111.139 49.623 112.48 50.1097 113.726C50.5963 114.972 51.8408 115.649 52.8892 115.24C53.9376 114.83 54.393 113.488 53.9064 112.243C53.4197 110.997 52.1753 110.319 51.1269 110.729ZM44.6912 112.749C43.5043 113.547 43.3569 115.406 44.3621 116.902C45.3673 118.399 47.1444 118.966 48.3313 118.168C49.5182 117.371 49.6656 115.512 48.6604 114.015C47.6552 112.519 45.8781 111.952 44.6912 112.749ZM57.1924 113.875C56.244 114.063 55.2927 113.294 55.0677 112.158C54.8427 111.021 55.4291 109.948 56.3775 109.76C57.3259 109.572 58.2772 110.341 58.5022 111.478C58.7272 112.614 58.1408 113.688 57.1924 113.875ZM59.7261 112.432C59.74 113.512 60.455 114.378 61.3231 114.367C62.1912 114.355 62.8836 113.471 62.8697 112.392C62.8557 111.312 62.1407 110.446 61.2726 110.457C60.4045 110.468 59.7121 111.352 59.7261 112.432ZM64.7484 116.372C64.0313 116.356 63.4661 115.632 63.486 114.754C63.5059 113.877 64.1034 113.179 64.8205 113.195C65.5376 113.211 66.1028 113.936 66.0829 114.813C66.063 115.691 65.4655 116.389 64.7484 116.372ZM63.9208 118.633C62.0122 115.858 59.2773 115.189 55.6151 115.879C51.9258 116.574 48.5346 118.706 48.3609 120.52C48.1818 122.507 48.6723 123.946 50.294 125.744L50.2994 125.764C50.745 126.259 51.3691 126.576 52.0281 126.911C53.2646 127.54 54.6241 128.231 55.1584 130.277C55.8253 132.829 55.6645 133.708 55.5236 134.478C55.4568 134.843 55.3945 135.183 55.4266 135.666C55.4785 136.517 55.644 137.358 55.9187 138.166C56.6952 140.4 58.5122 141.546 60.8399 141.265C63.9307 140.893 65.4924 139.473 65.9808 136.649C66.3478 134.518 66.3402 134.376 66.2561 132.806C66.2274 132.271 66.1899 131.571 66.1553 130.57C66.0652 127.791 65.9913 125.975 65.4566 122.652C65.2652 121.46 64.6068 119.627 63.9208 118.633Z" fill="#4FB8E7"/>
<g clip-path="url(#clip0_2240_6484)">
<path d="M111.163 91.4177C112.924 85.701 115.802 74.9316 117.489 70.8312C118.853 67.5225 120.126 64.1975 121.691 62.6303C123.255 61.0658 125.916 61.1882 127.522 62.7881C127.522 62.7881 134.239 67.3456 136.648 70.3604C139.662 72.7603 144.225 79.4946 144.225 79.4946C145.831 81.0999 145.953 83.7583 144.389 85.3255C142.821 86.8901 139.496 88.1635 136.185 89.5266C132.087 91.2136 121.315 94.0869 115.598 95.8528C114.622 96.1521 110.864 92.3945 111.163 91.4177Z" fill="#D99E82"/>
<path d="M169.879 14.4427C169.134 15.1871 168.543 16.0708 168.14 17.0436C167.737 18.0163 167.53 19.0588 167.53 20.1117C167.53 21.1646 167.737 22.2072 168.14 23.1799C168.543 24.1526 169.134 25.0364 169.879 25.7808L181.217 37.1216C182.721 38.6241 184.76 39.4681 186.886 39.4681C189.012 39.4681 191.051 38.6241 192.555 37.1216L203.896 25.7808C205.398 24.2767 206.242 22.2377 206.242 20.1117C206.242 17.9858 205.398 15.9467 203.896 14.4427L192.558 3.10458C191.813 2.35994 190.929 1.76925 189.957 1.36624C188.984 0.963227 187.941 0.755798 186.889 0.755798C185.836 0.755798 184.793 0.963227 183.82 1.36624C182.848 1.76925 181.964 2.35994 181.219 3.10458L169.879 14.4427Z" fill="#EA596E"/>
<path d="M121.691 62.6303L133.037 73.9766L144.364 85.3092L186.887 42.7893L164.208 20.1131L121.691 62.6303Z" fill="#FFC01D"/>
<path d="M119.718 94.5876C119.718 94.5876 112.347 98.639 110.356 96.6473C108.364 94.6556 112.437 87.3009 112.437 87.3009C112.437 87.3009 119.419 87.4315 119.718 94.5876Z" fill="#292F33"/>
<path d="M201.06 28.616L178.381 5.93707L164.211 20.1104L186.887 42.7893L201.06 28.616Z" fill="#CCD6DD"/>
<path d="M198.225 31.4485L175.549 8.77228L172.714 11.6075L195.39 34.2837L198.225 31.4485ZM192.557 37.1243L169.878 14.4454L167.043 17.2806L189.722 39.9568L192.557 37.1243Z" fill="#99AAB5"/>
</g>
<defs>
<clipPath id="clip0_2240_6484">
<rect width="97.9534" height="97.9534" fill="white" transform="matrix(-1 0 0 1 207 0)"/>
</clipPath>
</defs>
</svg>
