<svg width="22" height="20" viewBox="0 0 22 20" fill="none" xmlns="http://www.w3.org/2000/svg">
<path d="M6.1875 2.83594L6.233 2.608C6.32366 2.15444 6.56871 1.74633 6.92644 1.45314C7.28418 1.15995 8.17747 0.999817 8.64 1H13.36C13.8225 0.999817 14.7158 1.15995 15.0736 1.45314C15.4313 1.74633 15.6763 2.15444 15.767 2.608L15.8168 2.834C15.8866 3.18279 16.0043 3.50459 16.2498 3.76198C16.4953 4.01938 16.8089 4.20178 17.154 4.288C17.967 4.49138 19.6887 4.96068 20.2044 5.6213C20.72 6.28192 21.0001 7.09595 21 7.934V15C21 16.0609 20.5786 17.0783 19.8284 17.8284C19.0783 18.5786 18.0609 19 17 19H5C3.93913 19 2.92172 18.5786 2.17157 17.8284C1.42143 17.0783 1 16.0609 1 15V7.934C0.999924 7.09595 1.27998 6.28192 1.79564 5.6213C2.31131 4.96068 4.033 4.49138 4.846 4.288C5.19111 4.20178 5.50466 4.01938 5.75019 3.76198C5.99572 3.50459 6.11765 3.18473 6.1875 2.83594Z" stroke="#4D5053" stroke-linecap="round" stroke-linejoin="round"/>
<path d="M11 15C13.2091 15 15 13.2091 15 11C15 8.79086 13.2091 7 11 7C8.79086 7 7 8.79086 7 11C7 13.2091 8.79086 15 11 15Z" stroke="#4D5053" stroke-linecap="round" stroke-linejoin="round"/>
</svg>
